# xmcd
#
# Track frame offsets:
# 150
# 15997
# 34702
# 47487
# 60337
# 76033
# 91689
# 102368
# 117764
# 132836
# 148111
# 168107
# 183851
# 197023
# 217153
# 236747
# 254431
# 272081
# 288898
# 302937
# 316563
# 331370
#
# Disc length: 4663 seconds
#
#
# Revision: 0
# Processed by: cddbd v1.5.2PL0 Copyright (c) Steve Scherf et al.
# Submitted via: FreeRIP 2.951 
#
DISCID=22123516
DTITLE=Vários - As Balas do Brega
DYEAR=1900
DGENRE=Brega
TTITLE0=A cruz que carrego - Evaldo Braga
TTITLE1=A raposa e as uvas - Reginaldo Rossi
TTITLE2=Domingo feliz - Angelo Máximo
TTITLE3=A namorado que sonhei - Nilton Cézar
TTITLE4=Adeus solidão - Carmem Silva
TTITLE5=Última canção - Paulo Sérgio
TTITLE6=Beijinho doce - Nalva Aguiar
TTITLE7=Soleado - Francisco Cuoco
TTITLE8=A desconhecida - Fernando Mendes
TTITLE9=Impossivel ACR - Márcio Greyck
TTITLE10=Pequenina - Perla
TTITLE11=de que vale tudo na vida - José Augusto
TTITLE12=Meu grito - Aginaldo Timóteo
TTITLE13=Vou tirar você desse lugar - Odair José
TTITLE14=Não se vá - Jane e Herodi
TTITLE15=Manhãs de setembro - Vanusa
TTITLE16=No toca fita do meu carro - Barto Galeno
TTITLE17=Castelo de sonhos - Valter Barros
TTITLE18=Quarto de mansão - Paulo de Paula
TTITLE19=O fruto do nosso amor - Amado Batista
TTITLE20=A última carta - Marcos Roberto
TTITLE21=O amor e o poder - Rosana
EXTD=
EXTT0=
EXTT1=
EXTT2=
EXTT3=
EXTT4=
EXTT5=
EXTT6=
EXTT7=
EXTT8=
EXTT9=
EXTT10=
EXTT11=
EXTT12=
EXTT13=
EXTT14=
EXTT15=
EXTT16=
EXTT17=
EXTT18=
EXTT19=
EXTT20=
EXTT21=
PLAYORDER=
